<svg width="43" height="40" viewBox="0 0 43 40" fill="none" xmlns="http://www.w3.org/2000/svg">
<path d="M24.7747 14.8567H14.7682C14.2931 14.8567 13.8374 14.6811 13.5013 14.3685C13.1653 14.0559 12.9766 13.632 12.9766 13.19C12.9766 12.748 13.1653 12.324 13.5013 12.0115C13.8374 11.6989 14.2931 11.5233 14.7682 11.5233H29.1016C29.3371 11.5227 29.5704 11.5653 29.7881 11.6488C30.0058 11.7324 30.2035 11.8551 30.3701 12.01C30.5366 12.1649 30.6685 12.3489 30.7583 12.5514C30.8481 12.7539 30.894 12.9709 30.8932 13.19V26.5233C30.8932 26.9653 30.7045 27.3893 30.3685 27.7018C30.0325 28.0144 29.5768 28.19 29.1016 28.19C28.6264 28.19 28.1707 28.0144 27.8347 27.7018C27.4987 27.3893 27.3099 26.9653 27.3099 26.5233V17.2133L15.1642 28.5117C14.828 28.8242 14.3721 28.9996 13.8969 28.9995C13.4216 28.9993 12.9658 28.8236 12.6299 28.5108C12.2939 28.1981 12.1053 27.774 12.1055 27.3319C12.1056 26.8898 12.2946 26.4658 12.6308 26.1533L24.7747 14.8567Z" fill="#FC9C44"/>
</svg>
