<svg width="47" height="47" viewBox="0 0 47 47" fill="none" xmlns="http://www.w3.org/2000/svg">
<path d="M35.2498 8.77334C32.1335 5.65704 27.9069 3.90633 23.4998 3.90633C19.0927 3.90633 14.8661 5.65704 11.7498 8.77334C8.63353 11.8896 6.88281 16.1162 6.88281 20.5233C6.88281 24.9304 8.63353 29.157 11.7498 32.2733L22.0702 42.6133C22.2523 42.7969 22.4689 42.9426 22.7075 43.042C22.9462 43.1414 23.2021 43.1926 23.4607 43.1926C23.7192 43.1926 23.9751 43.1414 24.2138 43.042C24.4524 42.9426 24.669 42.7969 24.8511 42.6133L35.2498 32.1754C38.3531 29.0721 40.0965 24.8631 40.0965 20.4744C40.0965 16.0856 38.3531 11.8767 35.2498 8.77334ZM32.4494 29.375L23.4998 38.3638L14.5502 29.375C12.7821 27.6053 11.5784 25.3511 11.0912 22.8974C10.604 20.4437 10.8552 17.9006 11.8131 15.5897C12.7709 13.2787 14.3924 11.3036 16.4726 9.91402C18.5528 8.52444 20.9982 7.78277 23.4998 7.78277C26.0014 7.78277 28.4469 8.52444 30.527 9.91402C32.6072 11.3036 34.2287 13.2787 35.1866 15.5897C36.1444 17.9006 36.3956 20.4437 35.9084 22.8974C35.4212 25.3511 34.2175 27.6053 32.4494 29.375ZM17.6248 14.5113C16.0439 16.0971 15.1561 18.2449 15.1561 20.4842C15.1561 22.7234 16.0439 24.8713 17.6248 26.4571C18.7994 27.6336 20.2952 28.4371 21.9246 28.7668C23.5541 29.0964 25.2446 28.9375 26.7841 28.31C28.3236 27.6825 29.6435 26.6143 30.5782 25.2395C31.5129 23.8647 32.0208 22.2445 32.0382 20.5821C32.047 19.4721 31.8332 18.3716 31.4093 17.3457C30.9855 16.3198 30.3603 15.3893 29.5707 14.6092C28.7945 13.8152 27.869 13.1826 26.8474 12.7477C25.8259 12.3128 24.7284 12.0842 23.6181 12.0751C22.5078 12.066 21.4068 12.2766 20.3782 12.6947C19.3496 13.1128 18.4139 13.7301 17.6248 14.5113ZM26.8094 23.6763C26.0673 24.4297 25.0865 24.902 24.0347 25.0123C22.9829 25.1227 21.9254 24.8643 21.0431 24.2812C20.1608 23.6982 19.5083 22.8268 19.1974 21.816C18.8864 20.8052 18.9362 19.7177 19.3383 18.7396C19.7403 17.7614 20.4697 16.9533 21.4016 16.4534C22.3336 15.9535 23.4102 15.7928 24.4475 15.9988C25.4848 16.2049 26.4183 16.7648 27.0885 17.583C27.7586 18.4011 28.1238 19.4266 28.1215 20.4842C28.093 21.693 27.5859 22.8411 26.7115 23.6763H26.8094Z" fill="white"/>
</svg>
