<svg width="44" height="44" viewBox="0 0 44 44" fill="none" xmlns="http://www.w3.org/2000/svg">
<path d="M39.8022 37.1983L33.0006 30.4517C35.6407 27.1597 36.9193 22.9814 36.5734 18.7757C36.2274 14.57 34.2833 10.6568 31.1407 7.84051C27.9981 5.02425 23.8959 3.51909 19.6776 3.63452C15.4593 3.74995 11.4455 5.47719 8.46165 8.46109C5.47775 11.445 3.75051 15.4587 3.63509 19.677C3.51966 23.8953 5.02482 27.9975 7.84107 31.1401C10.6573 34.2827 14.5706 36.2269 18.7763 36.5728C22.9819 36.9188 27.1603 35.6402 30.4522 33L37.1989 39.7467C37.3693 39.9185 37.5721 40.0549 37.7955 40.148C38.0189 40.241 38.2585 40.289 38.5006 40.289C38.7426 40.289 38.9822 40.241 39.2056 40.148C39.429 40.0549 39.6318 39.9185 39.8022 39.7467C40.1327 39.4048 40.3174 38.9479 40.3174 38.4725C40.3174 37.997 40.1327 37.5402 39.8022 37.1983ZM20.1672 33C17.629 33 15.1478 32.2473 13.0374 30.8372C10.927 29.427 9.28209 27.4228 8.31077 25.0778C7.33944 22.7328 7.0853 20.1524 7.58048 17.663C8.07566 15.1736 9.29791 12.8869 11.0927 11.0921C12.8875 9.29735 15.1741 8.07509 17.6636 7.57991C20.153 7.08474 22.7333 7.33888 25.0783 8.3102C27.4233 9.28153 29.4276 10.9264 30.8378 13.0368C32.2479 15.1473 33.0006 17.6285 33.0006 20.1667C33.0006 23.5703 31.6485 26.8345 29.2418 29.2412C26.835 31.6479 23.5708 33 20.1672 33Z" fill="#FC9C44"/>
</svg>
