<svg width="387" height="48" viewBox="0 0 387 48" fill="none" xmlns="http://www.w3.org/2000/svg">
<g clip-path="url(#clip0_93_340)">
<path d="M24 0C10.7453 0 0 10.7453 0 24C0 35.255 7.74912 44.6995 18.2026 47.2934V31.3344H13.2538V24H18.2026V20.8397C18.2026 12.671 21.8995 8.8848 29.9194 8.8848C31.44 8.8848 34.0637 9.18336 35.137 9.48096V16.129C34.5706 16.0694 33.5866 16.0397 32.3645 16.0397C28.4294 16.0397 26.9088 17.5306 26.9088 21.4061V24H34.7482L33.4013 31.3344H26.9088V47.8243C38.7926 46.3891 48.001 36.2707 48.001 24C48 10.7453 37.2547 0 24 0Z" fill="white"/>
</g>
<rect x="339" width="48" height="48" rx="24" fill="white"/>
<path d="M358.608 36.66C369.252 36.66 375.072 27.84 375.072 20.196C375.072 19.944 375.072 19.692 375.06 19.452C376.188 18.636 377.172 17.616 377.952 16.452C376.92 16.908 375.804 17.22 374.628 17.364C375.828 16.644 376.74 15.516 377.172 14.16C376.056 14.82 374.82 15.3 373.5 15.564C372.444 14.436 370.944 13.74 369.276 13.74C366.084 13.74 363.492 16.332 363.492 19.524C363.492 19.98 363.54 20.424 363.648 20.844C358.836 20.604 354.576 18.3 351.72 14.796C351.228 15.648 350.94 16.644 350.94 17.7C350.94 19.704 351.96 21.48 353.52 22.512C352.572 22.488 351.684 22.224 350.904 21.792C350.904 21.816 350.904 21.84 350.904 21.864C350.904 24.672 352.896 27 355.548 27.54C355.068 27.672 354.552 27.744 354.024 27.744C353.652 27.744 353.292 27.708 352.932 27.636C353.664 29.94 355.8 31.608 358.332 31.656C356.352 33.204 353.856 34.128 351.144 34.128C350.676 34.128 350.22 34.104 349.764 34.044C352.296 35.7 355.344 36.66 358.608 36.66Z" fill="#04387C"/>
<rect x="114" width="48" height="48" rx="24" fill="white"/>
<path d="M138.004 12.1956C141.852 12.1956 142.303 12.2128 143.824 12.2814C145.231 12.3443 145.991 12.5787 146.5 12.7788C147.175 13.0418 147.655 13.3505 148.158 13.8537C148.661 14.3568 148.975 14.837 149.233 15.5117C149.427 16.0205 149.667 16.7809 149.73 18.1874C149.799 19.7082 149.816 20.1598 149.816 24.0076C149.816 27.8553 149.799 28.307 149.73 29.8278C149.667 31.2343 149.433 31.9947 149.233 32.5035C148.97 33.1782 148.661 33.6584 148.158 34.1615C147.655 34.6647 147.175 34.9791 146.5 35.2364C145.991 35.4308 145.231 35.6709 143.824 35.7338C142.303 35.8024 141.852 35.8196 138.004 35.8196C134.156 35.8196 133.705 35.8024 132.184 35.7338C130.777 35.6709 130.017 35.4365 129.508 35.2364C128.833 34.9734 128.353 34.6647 127.85 34.1615C127.347 33.6584 127.032 33.1782 126.775 32.5035C126.581 31.9947 126.341 31.2343 126.278 29.8278C126.209 28.307 126.192 27.8553 126.192 24.0076C126.192 20.1598 126.209 19.7082 126.278 18.1874C126.341 16.7809 126.575 16.0205 126.775 15.5117C127.038 14.837 127.347 14.3568 127.85 13.8537C128.353 13.3505 128.833 13.0361 129.508 12.7788C130.017 12.5844 130.777 12.3443 132.184 12.2814C133.705 12.2071 134.162 12.1956 138.004 12.1956ZM138.004 9.59998C134.093 9.59998 133.602 9.61713 132.064 9.68574C130.531 9.75434 129.485 10.0002 128.57 10.3547C127.621 10.7206 126.821 11.218 126.02 12.0184C125.22 12.8188 124.728 13.625 124.357 14.5683C124.002 15.4831 123.756 16.5294 123.688 18.0673C123.619 19.5996 123.602 20.0912 123.602 24.0019C123.602 27.9125 123.619 28.4042 123.688 29.9422C123.756 31.4744 124.002 32.5207 124.357 33.4412C124.723 34.3902 125.22 35.1907 126.02 35.9911C126.821 36.7915 127.627 37.2832 128.57 37.6548C129.485 38.0093 130.531 38.2551 132.069 38.3237C133.607 38.3924 134.093 38.4095 138.01 38.4095C141.926 38.4095 142.412 38.3924 143.95 38.3237C145.482 38.2551 146.528 38.0093 147.449 37.6548C148.398 37.2889 149.198 36.7915 149.999 35.9911C150.799 35.1907 151.291 34.3845 151.663 33.4412C152.017 32.5264 152.263 31.4801 152.332 29.9422C152.4 28.4042 152.417 27.9182 152.417 24.0019C152.417 20.0855 152.4 19.5996 152.332 18.0616C152.263 16.5294 152.017 15.4831 151.663 14.5626C151.297 13.6135 150.799 12.8131 149.999 12.0127C149.198 11.2123 148.392 10.7206 147.449 10.3489C146.534 9.99447 145.488 9.74863 143.95 9.68002C142.406 9.61713 141.915 9.59998 138.004 9.59998Z" fill="#04387C"/>
<path d="M138.004 12.1956C141.852 12.1956 142.303 12.2128 143.824 12.2814C145.231 12.3443 145.991 12.5787 146.5 12.7788C147.175 13.0418 147.655 13.3505 148.158 13.8537C148.661 14.3568 148.975 14.837 149.233 15.5117C149.427 16.0205 149.667 16.7809 149.73 18.1874C149.799 19.7082 149.816 20.1598 149.816 24.0076C149.816 27.8553 149.799 28.307 149.73 29.8278C149.667 31.2343 149.433 31.9947 149.233 32.5035C148.97 33.1782 148.661 33.6584 148.158 34.1615C147.655 34.6647 147.175 34.9791 146.5 35.2364C145.991 35.4308 145.231 35.6709 143.824 35.7338C142.303 35.8024 141.852 35.8196 138.004 35.8196C134.156 35.8196 133.705 35.8024 132.184 35.7338C130.777 35.6709 130.017 35.4365 129.508 35.2364C128.833 34.9734 128.353 34.6647 127.85 34.1615C127.347 33.6584 127.032 33.1782 126.775 32.5035C126.581 31.9947 126.341 31.2343 126.278 29.8278C126.209 28.307 126.192 27.8553 126.192 24.0076C126.192 20.1598 126.209 19.7082 126.278 18.1874C126.341 16.7809 126.575 16.0205 126.775 15.5117C127.038 14.837 127.347 14.3568 127.85 13.8537C128.353 13.3505 128.833 13.0361 129.508 12.7788C130.017 12.5844 130.777 12.3443 132.184 12.2814C133.705 12.2071 134.162 12.1956 138.004 12.1956Z" fill="#04387C"/>
<path d="M138.004 16.6094C133.922 16.6094 130.605 19.9197 130.605 24.0076C130.605 28.0954 133.916 31.4058 138.004 31.4058C142.092 31.4058 145.402 28.0954 145.402 24.0076C145.402 19.9197 142.092 16.6094 138.004 16.6094ZM138.004 28.8044C135.351 28.8044 133.201 26.6547 133.201 24.0019C133.201 21.349 135.351 19.1993 138.004 19.1993C140.657 19.1993 142.806 21.349 142.806 24.0019C142.806 26.6547 140.657 28.8044 138.004 28.8044Z" fill="white"/>
<path d="M145.693 18.0387C146.647 18.0387 147.42 17.2657 147.42 16.3121C147.42 15.3585 146.647 14.5854 145.693 14.5854C144.74 14.5854 143.967 15.3585 143.967 16.3121C143.967 17.2657 144.74 18.0387 145.693 18.0387Z" fill="white"/>
<rect x="227" width="48" height="48" rx="24" fill="white"/>
<path d="M267.438 15.7565C267.043 14.2878 265.885 13.1298 264.416 12.7344C261.733 12 251 12 251 12C251 12 240.267 12 237.584 12.7061C236.143 13.1015 234.957 14.2878 234.562 15.7565C233.855 18.4397 233.855 24.0039 233.855 24.0039C233.855 24.0039 233.855 29.5963 234.562 32.2513C234.957 33.72 236.115 34.878 237.584 35.2734C240.295 36.0078 251 36.0078 251 36.0078C251 36.0078 261.733 36.0078 264.416 35.3017C265.885 34.9062 267.043 33.7482 267.438 32.2795C268.144 29.5963 268.144 24.0321 268.144 24.0321C268.144 24.0321 268.172 18.4397 267.438 15.7565Z" fill="#04387C"/>
<path d="M247.582 29.1444L256.507 24.0039L247.582 18.8634V29.1444Z" fill="white"/>
<defs>
<clipPath id="clip0_93_340">
<rect width="48" height="48" fill="white"/>
</clipPath>
</defs>
</svg>
